<svg xmlns="http://www.w3.org/2000/svg" width="60" height="52" fill="none"><g clip-path="url(#a)"><path fill="#FDC305" d="M51.6 20.9A22.2 22.2 0 0034 7.4a21.9 21.9 0 00-20.3 8.4A22.4 22.4 0 0028 51.4l-1.5-6c1.4 1 2.7 1.7 4.1 2.3l.3 4c1.5 0 3-.1 4.6-.4v-.7c.2-1.6 1-4.5 1-6.4 1-1 1.9-2 2.6-3.3v.4c-.6 3.7-1.6 7.7-2.2 8.8l-.7 1a22 22 0 0017-20.8c.2-3.2-.4-6.5-1.6-9.4zM50.3 24c-.4.4-1.1.7-1.3-.5l-.1-1.9s-1.7-3-2.3-3c-.6 0-5 3-6.2 4.4-1 1-1.2 1-1.2 3 0 1.5.2 7 0 11.4l-7 1.8c-2.2.7-4.4 1.2-6.7 1.5l-.8-5h-.1l-2.3-11.5-4.5-1.6a3.2 3.2 0 00-3.4.6 4.4 4.4 0 00-1.5 3.3l.4 1.3c0 .4-1 .4-1.7.4s-.8-1.3-.2-2.8a19.9 19.9 0 013.3-5.7s.1-.3 1-.2l6.4.4v-2a122 122 0 0117.4-1.2v1.6c2.2-1 4.6-1.6 7-1.7a.8.8 0 01.7.3l2.3 3 1.6 2.5c-.2.6-.4 1.2-.8 1.6z"/><path fill="#F06351" d="M48.6 18.8l.9 1.2 1.6 2.6c-.2.5-.4 1-.8 1.5-.3.4-1.1.6-1.3-.5l-.1-1.9s-1.7-3-2.3-3c-.6 0-5 3-6.2 4.4-1 1-1.2 1-1.2 3l.1 9.7c1.6.2 3.8.6 4.5 1.7 0 0-.2-6.3 6.8-3 0 0 .2-8.5 9.8-6.3-3.2-4-7.2-7-11.8-9.4zm-9-2c0-4.8-.4-9.6-1.2-14.3 0 0-.2-1.2-.8-.3-.5 1.1-.9 2.3-1 3.5-3.7-.2-7.4-.1-11 .3-.8-2.4-2-3.5-2.6-3.2-.5.3-.6 2.9-.6 2.9L22.1 18a122 122 0 0117.5-1.2z"/><path fill="#E55645" d="M39 41c.2-1 .2-2.2.3-3.6l-7 1.9c-2.3.7-4.5 1.2-6.8 1.5l1 4.4v.3c1.4.8 2.7 1.6 4.1 2.2 2.1-1 4.1-2.2 6-3.6 1-.9 1.8-2 2.5-3.2z"/><path fill="#000" d="M27.6 14l1.2.9.5.5c0 .2-.2.3-.5.3l-.9-.2c0-.1.5 0 .8 0h.3a7 7 0 01-1.4-1.4zm6.4.2l-1 1.2s0 .2.3.2a7 7 0 001-.2l-.1-.2-.9.1.8-1.1s0-.1 0 0zm-2.7 5.3a2 2 0 001-.9c.2-.5 0-.8-.4-.8-.5-.1-1 0-1.5.3-.4.3-.3.6 0 .8.3.3.6.4 1 .6z"/><path fill="#F06351" d="M31 20.6c0 .2-.2.4-.4.5-.2.2-.5.3-.8.3-.5 0-1 0-1.4-.3l-.4-.4-.3-.2s.6 3.5 2.2 4.1c1.5.6 1.8-.7 1.9-1 0-1-.2-2-.7-2.8v-.2z"/><path fill="#000" d="M29.5 21.6a3 3 0 01-2-1.3.1.1 0 010-.1.1.1 0 01.1 0 2.8 2.8 0 002 1.1 1.8 1.8 0 001.3-.9l.1-.1.1.2s.4.6.9.7c.5 0 1-.4 1.4-1.2h.2a.1.1 0 010 .2c-.6.8-1.1 1.2-1.6 1.2a1.3 1.3 0 01-1-.6 2 2 0 01-1.5.8z"/><path fill="#FDC305" d="M31.2 33.3c1.8 0 3.3-1.5 3.3-3.3 0-1.8-1.5-3.2-3.3-3.2A3.2 3.2 0 0028 30c0 1.8 1.5 3.3 3.2 3.3z"/><path fill="#111" d="M35.5 27.4l-2.7 1.1 1-4.9-6.4 8.5L30 31l-1 4.9 6.5-8.5zm-6.3 3.3l3.5-4.7-.7 3.5 1.8-.7-3.7 4.7.7-3.5-1.6.7zM28 29.4c.5 0 1-.4 1-1 0-.5-.5-1-1-1a1 1 0 00-1 1c0 .6.4 1 1 1zm5.6 3.6c.3 0 .6-.4.6-.7 0-.4-.3-.7-.6-.7-.4 0-.7.3-.7.7 0 .3.3.6.7.6zm.8-2c.2 0 .3 0 .3-.2s-.1-.3-.3-.3c-.2 0-.3 0-.3.3 0 .1.1.3.3.3z"/><path fill="#F06351" d="M39.5 18.4l-4.4 4.5c-1.3 1.6-2.9 3-4.5 4.3-.2-.5-1.4-1.3-1.4-1.3l-4.5-3.4c-1-.8-1.9-1.7-2.7-2.6h-1.7c2.4 3.6 6 6.3 10.3 7.6.7-.1 2.8-1.6 4.4-2.9 1.8-1.5 3.5-3.3 5.1-5 .5-.6.8-1.2 1-1.8l-1.6.6zm-17.2 5.9l-4.5-1.6a3.2 3.2 0 00-3.4.6 4.4 4.4 0 00-1.5 3.3l.4 1.3c0 .4-1 .4-1.7.4s-.8-1.3-.2-2.8c.4-1 .9-2.2 1.5-3.2A172 172 0 000 30.5c2.4-.2 4.7-.1 7 .2 4.6.4 4.4 4 4.4 4a33 33 0 014.8-1c1.8 0 2 2 2 2l.4 3.3c.7-.8 1.5-1.5 2.3-2 1-1 2.4-1.4 3.8-1.2l-2.4-11.5z"/></g><defs><clipPath id="a"><path fill="#fff" d="M0 0h174v51.7H0z"/></clipPath></defs></svg>